<svg xmlns="http://www.w3.org/2000/svg" width="78" height="31" fill="none"><g clip-path="url(#a)"><path fill="#CC2031" d="m8.48381 21.9902-4.41911 3.886c2.9023 3.1463 7.1063 5.1241 11.7835 5.1241.8082 0 1.6029-.0586 2.3794-.1725V24.911c-.7618.1835-1.5587.2808-2.3794.2808-2.9226 0-5.5499-1.2359-7.36552-3.2016h.00113ZM31.707 15.5136c0-3.9854-1.5417-7.6193-4.0728-10.36321l-4.4191 3.88592c1.5814 1.71579 2.5458 3.98539 2.5458 6.47729 0 2.1381-.7109 4.1136-1.913 5.7155l-3.1264-3.3917h-8.0482l11.779 12.7765h8.0482l-4.6206-5.0113c2.385-2.7097 3.8271-6.2352 3.8271-10.089ZM32.0737 5.83249h8.1274V30.6128h5.9461V9.69519l-3.56-3.8627h11.6873V.412109H32.0737V5.83249ZM62.5387 8.67284c0-1.781 1.93-2.86552 4.5436-2.86552 2.6137 0 4.1792.92974 5.7639 2.63336l4.5198-3.94894C75.9387 2.71074 72.5723 0 67.3755 0c-5.1967 0-10.7829 3.32984-10.7829 8.82761 0 10.14429 15.4612 8.05379 15.4612 13.00979 0 2.1679-2.2989 3.3299-4.916 3.3299-3.1717 0-5.5499-1.6263-7.1358-3.3299l-4.5198 3.9489c1.7443 2.168 5.233 5.1883 11.1802 5.1883s11.3387-3.2525 11.3387-9.2157c0-10.299-15.4613-8.1311-15.4613-13.08717l-.0011.00111Z"/><path fill="#0033A0" d="M14.8986 5.87759 14.327.0957031c-.4494.0420099-.8931.1017079-1.3312.1802009l1.0709 5.713346c.2739-.04754.5512-.08623.8319-.11166ZM11.6738 6.73156 9.16319 1.46484c-.4075.18463-.80594.38694-1.1942.60473l2.95891 5.03787c.2422-.13598.4913-.26091.7459-.37588ZM13.2484 6.16946 11.6852.564453c-.4347.114975-.8614.247637-1.2814.396883L12.4492 6.4171c.2615-.09287.5286-.17578.8003-.24764h-.0011ZM15.8496 5.83271c.2445 0 .4867.00884.7267.02653l.4381-5.792945c-.3849-.0276381-.772-.0409044-1.1637-.0409044-.06 0-.12 0-.1788.0011055l.0679 5.8073139h.1121l-.0023-.0011ZM22.6129 8.438l4.0659-4.23747c-.3271-.2996-.6678-.58593-1.0199-.85678l-3.6833 4.56029c.2207.16804.4324.34603.6373.53396ZM21.2953 7.42385l3.2736-4.84883c-.3736-.24101-.7585-.46653-1.1524-.67658l-2.8423 5.1031c.2479.13045.4879.27085.7211.4212v.00111ZM19.8204 6.64086l2.3884-5.32089c-.4086-.17467-.8274-.333865-1.253-.474267L19.0371 6.34458c.266.08844.5275.18794.7833.29628ZM10.2181 7.5454 6.83132 2.76953c-.36902.24985-.72671.51407-1.07082.79266l3.78748 4.47627c.2162-.17467.4392-.3394.67012-.49417v.00111ZM19.6652.476595c-.4324-.105025-.8716-.191256-1.3164-.259798l-.9384 5.735463c.2785.04311.5524.09728.8218.1614l1.433-5.637065ZM6.17817 17.6348.376953 18.9227c.098479.43.216201.8546.350903 1.2702L6.3955 18.4296c-.08376-.2598-.15734-.5251-.21847-.7948h.00114ZM6.68415 19.2031 1.1897 21.4308c.17205.4068.36109.8048.56823 1.1939l5.28052-2.6742c-.12904-.2433-.24789-.492-.3543-.7474ZM5.95063 16.0078l-5.9381788.3118c.0226389.4411.0645208.8778.1256458 1.3089l5.890633-.8026c-.03848-.2697-.06452-.5428-.0781-.8181ZM8.92316 8.58933 4.761 4.44141c-.32034.30623-.62823.62572-.9214.95738l4.50853 3.78753c.18338-.20784.37581-.40684.57616-.59699h-.00113ZM7.45607 20.6641l-5.02809 3.101c.23997.3714.49579.7329.76632 1.0823l4.74059-3.5068c-.1698-.2189-.3294-.4444-.47882-.6765ZM7.8262 9.82833l-4.82095-3.4006c-.26374.35377-.51164.7197-.74255 1.09447l5.0994 2.9893c.14489-.2343.29997-.4632.4641-.68428v.00111ZM6.00723 14.3666l-5.9076189-.6732c-.0520695.4322-.0848958.87-.0996111 1.3122l5.94384.1802c.00905-.2764.03056-.5494.06339-.8192ZM6.95684 11.2318 1.61633 8.67578c-.19809.39136-.38033.79266-.54333 1.20281l5.54426 2.10491c.10187-.2554.2162-.5063.33958-.7506v-.0011ZM6.34463 12.7603.6385 11.123c-.126778.4179-.235444.8436-.326 1.2758l5.82725 1.1597c.0566-.2697.12564-.5362.20488-.7971v-.0011Z"/></g><defs><clipPath id="a"><path fill="#fff" d="M0 0h78v31H0z"/></clipPath></defs></svg>